<?xml version="1.0" encoding="UTF-8" standalone="no"?>
<svg
   xmlns:dc="http://purl.org/dc/elements/1.1/"
   xmlns:cc="http://creativecommons.org/ns#"
   xmlns:rdf="http://www.w3.org/1999/02/22-rdf-syntax-ns#"
   xmlns:svg="http://www.w3.org/2000/svg"
   xmlns="http://www.w3.org/2000/svg"
   xmlns:sodipodi="http://sodipodi.sourceforge.net/DTD/sodipodi-0.dtd"
   xmlns:inkscape="http://www.inkscape.org/namespaces/inkscape"
   sodipodi:docname="logo-gen.svg"
   inkscape:version="1.0 (4035a4fb49, 2020-05-01)"
   id="svg898"
   version="1.1"
   viewBox="0 0 45 44.999999"
   height="45mm"
   width="45mm">
  <defs
     id="defs892" />
  <sodipodi:namedview
     inkscape:window-maximized="1"
     inkscape:window-y="-8"
     inkscape:window-x="-8"
     inkscape:window-height="1027"
     inkscape:window-width="1920"
     showgrid="false"
     inkscape:document-rotation="0"
     inkscape:current-layer="layer1"
     inkscape:document-units="mm"
     inkscape:cy="57.050234"
     inkscape:cx="116.85942"
     inkscape:zoom="1.9281516"
     inkscape:pageshadow="2"
     inkscape:pageopacity="0.0"
     borderopacity="1.0"
     bordercolor="#666666"
     pagecolor="#ffffff"
     id="base" />
  <metadata
     id="metadata895">
    <rdf:RDF>
      <cc:Work
         rdf:about="">
        <dc:format>image/svg+xml</dc:format>
        <dc:type
           rdf:resource="http://purl.org/dc/dcmitype/StillImage" />
        <dc:title></dc:title>
      </cc:Work>
    </rdf:RDF>
  </metadata>
  <g
     transform="translate(-21.838459,-65.562284)"
     id="layer1"
     inkscape:groupmode="layer"
     inkscape:label="Layer 1">
    <path
       d="m 42.835817,74.613092 c -2.320993,0.02003 -4.611343,1.064566 -6.13714,3.038989 l -9.963369,12.896337 c -2.63905,3.41615 -2.0069,8.342649 1.409162,10.982122 1.708115,1.31966 3.794003,1.82154 5.782358,1.56647 1.988439,-0.25525 3.880192,-1.26747 5.199758,-2.97551 l 9.963249,-12.89634 c 2.639636,-3.416139 2.007528,-8.343109 -1.409036,-10.982242 -1.44116,-1.113376 -3.15127,-1.64439 -4.844982,-1.629826 z m 0.0095,1.301178 c 1.411871,-0.01201 2.8377,0.430732 4.039487,1.358863 1.379821,1.066002 2.26138,2.605326 2.483383,4.334731 0.221919,1.729501 -0.242686,3.441485 -1.308689,4.821307 l -9.963245,12.896336 c -1.066004,1.379833 -2.605329,2.261453 -4.334736,2.483403 -1.729491,0.22191 -3.441481,-0.24246 -4.821302,-1.30846 v -5.1e-4 c -1.379823,-1.065988 -2.261342,-2.605279 -2.483262,-4.334343 -0.221835,-1.729416 0.242565,-3.441485 1.308569,-4.821306 l 9.963247,-12.896337 c 1.100089,-1.423922 2.677063,-2.267687 4.335104,-2.480432 0.258986,-0.03325 0.519987,-0.05104 0.781445,-0.05327 z m 12.840871,-2.950597 c -2.32111,0.01983 -4.611268,1.064374 -6.136537,3.039479 l -1.386234,1.793899 c -0.177392,0.229579 -0.18158,0.54934 -0.0095,0.783299 1.712326,2.332554 1.673934,5.55978 -0.09418,7.848821 l -8.577012,11.102064 c -0.177319,0.22958 -0.181672,0.548798 -0.0096,0.783173 0.43862,0.597841 0.950688,1.125213 1.522697,1.567198 1.708036,1.319564 3.794036,1.821504 5.782482,1.566334 1.988445,-0.25507 3.88007,-1.26734 5.199636,-2.975373 L 61.941263,85.57623 c 2.63956,-3.416148 2.007325,-8.343192 -1.409153,-10.982241 -1.441544,-1.113526 -3.151812,-1.644763 -4.845589,-1.630316 z m 0.0095,1.301668 c 1.412074,-0.01214 2.838019,0.430677 4.039979,1.35899 1.37982,1.066004 2.26155,2.605241 2.483383,4.334731 0.221918,1.729407 -0.242568,3.441358 -1.308561,4.821179 l -9.963375,12.896465 c -1.065918,1.379734 -2.605241,2.26134 -4.334731,2.483254 -1.729491,0.22184 -3.441486,-0.242934 -4.821306,-1.308933 -0.35051,-0.270813 -0.674467,-0.580879 -0.967836,-0.926171 L 49.089596,87.22516 c 2.019834,-2.614469 2.15838,-6.249926 0.393621,-9.006872 l 1.09654,-1.419147 c 1.271729,-1.646168 3.180847,-2.517147 5.115931,-2.5338 z"
       style="fill:#000000;fill-opacity:1;fill-rule:nonzero;stroke:none;stroke-width:0.0841559"
       id="path1469" />
  </g>
</svg>
